<svg width="211" height="40" viewBox="0 0 211 40" fill="none" xmlns="http://www.w3.org/2000/svg">
<path d="M61.8355 26.0161C61.8355 27.7163 61.1909 29.0276 59.9019 29.95C58.6239 30.8723 56.8292 31.3335 54.5178 31.3335C52.2731 31.3335 50.5395 30.9668 49.3171 30.2333C48.1058 29.4888 47.3168 28.3331 46.9501 26.7662L49.6005 26.2495C49.8561 27.2163 50.3839 27.9275 51.184 28.3831C51.9841 28.8276 53.0954 29.0498 54.5178 29.0498C56.0402 29.0498 57.1515 28.8165 57.8516 28.3497C58.5628 27.883 58.9184 27.1829 58.9184 26.2495C58.9184 25.5383 58.6739 24.9604 58.185 24.5159C57.696 24.0714 56.907 23.7047 55.818 23.4157C54.5289 23.0713 53.501 22.7879 52.7342 22.5656C51.9786 22.3434 51.3952 22.1545 50.984 21.9989C50.5728 21.8322 50.245 21.6766 50.0005 21.5322C49.2671 21.1099 48.6948 20.5931 48.2836 19.982C47.8725 19.3708 47.6669 18.6207 47.6669 17.7316C47.6669 16.087 48.2503 14.8368 49.4171 13.9811C50.5951 13.1144 52.3064 12.681 54.5512 12.681C56.5403 12.681 58.1183 13.031 59.2851 13.7311C60.4631 14.4312 61.2076 15.5536 61.5188 17.0982L58.8184 17.4316C58.6517 16.6315 58.2016 16.0203 57.4682 15.598C56.7459 15.1646 55.7735 14.9479 54.5512 14.9479C53.1954 14.9479 52.1953 15.1535 51.5507 15.5647C50.9062 15.9759 50.584 16.5982 50.584 17.4316C50.584 18.0428 50.7673 18.5484 51.134 18.9485C51.5007 19.3374 52.2008 19.6597 53.2343 19.9153C54.6234 20.2487 55.9458 20.6154 57.2015 21.0154C58.4572 21.4044 59.3574 21.7933 59.9019 22.1822C60.5353 22.6379 61.0131 23.1768 61.3354 23.7991C61.6688 24.4103 61.8355 25.1493 61.8355 26.0161ZM69.9699 31.3335C68.1585 31.3335 66.7972 30.8556 65.886 29.9C64.9748 28.9443 64.5192 27.633 64.5192 25.9661C64.5192 24.0992 65.1304 22.6656 66.3527 21.6655C67.5862 20.6654 69.5698 20.132 72.3035 20.0653L76.3541 19.9986V19.0152C76.3541 17.5483 76.0429 16.4981 75.4206 15.8647C74.7983 15.2313 73.8204 14.9146 72.4869 14.9146C71.1423 14.9146 70.1644 15.1424 69.5532 15.598C68.942 16.0536 68.5753 16.7815 68.453 17.7817L65.3193 17.4983C65.8304 14.2534 68.2419 12.631 72.5536 12.631C74.8205 12.631 76.5263 13.1533 77.6709 14.1978C78.8155 15.2313 79.3878 16.7315 79.3878 18.6984V26.4662C79.3878 27.3552 79.5045 28.0275 79.7379 28.4831C79.9712 28.9276 80.4157 29.1499 81.0714 29.1499C81.3825 29.1499 81.7104 29.111 82.0549 29.0332V30.9001C81.677 30.989 81.2936 31.0557 80.9047 31.1001C80.5158 31.1446 80.1268 31.1668 79.7379 31.1668C78.6266 31.1668 77.8154 30.8779 77.3042 30.3C76.8041 29.711 76.5208 28.7942 76.4541 27.5496H76.3541C75.5873 28.9276 74.6928 29.9055 73.6704 30.4834C72.6591 31.0501 71.4256 31.3335 69.9699 31.3335ZM76.3541 22.0989L73.0703 22.1656C71.6701 22.1767 70.6033 22.3212 69.8699 22.599C69.1364 22.8657 68.5753 23.2768 68.1863 23.8325C67.7974 24.3881 67.6029 25.116 67.6029 26.0161C67.6029 26.994 67.8641 27.7497 68.3863 28.2831C68.9198 28.8165 69.6754 29.0832 70.6533 29.0832C71.7646 29.0832 72.7425 28.8331 73.587 28.3331C74.4427 27.833 75.115 27.1496 75.604 26.2828C76.1041 25.4049 76.3541 24.5048 76.3541 23.5824V22.0989ZM87.4222 20.5487V31.0001H84.4385V16.8149C84.4385 15.7592 84.4274 14.9146 84.4052 14.2812C84.3941 13.6367 84.3718 13.1977 84.3385 12.9643H87.1722C87.1944 13.2088 87.2167 13.5089 87.2389 13.8645C87.2611 14.2201 87.2778 14.5923 87.2889 14.9813C87.3 15.3591 87.3056 15.7147 87.3056 16.0481H87.3556C88.0001 14.7701 88.7391 13.8811 89.5725 13.3811C90.406 12.881 91.4228 12.631 92.6229 12.631C93.9898 12.631 95.0677 12.9032 95.8567 13.4477C96.6568 13.9923 97.2124 14.859 97.5236 16.0481H97.5736C98.1959 14.8368 98.946 13.9645 99.8239 13.4311C100.713 12.8977 101.785 12.631 103.041 12.631C104.863 12.631 106.186 13.1255 107.008 14.1145C107.842 15.1035 108.258 16.726 108.258 18.9818V31.0001H105.291V19.5652C105.291 17.8205 105.052 16.6148 104.575 15.9481C104.097 15.2813 103.235 14.9479 101.991 14.9479C100.68 14.9479 99.6572 15.4369 98.9238 16.4148C98.2015 17.3816 97.8403 18.7596 97.8403 20.5487V31.0001H94.8732V19.5652C94.8732 17.8205 94.6343 16.6148 94.1565 15.9481C93.6786 15.2813 92.8174 14.9479 91.5728 14.9479C90.2949 14.9479 89.2836 15.4369 88.5391 16.4148C87.7945 17.3927 87.4222 18.7707 87.4222 20.5487ZM128.061 21.8989C128.061 25.0437 127.505 27.4052 126.394 28.9832C125.294 30.55 123.638 31.3335 121.427 31.3335C118.649 31.3335 116.782 30.2889 115.826 28.1997H115.743C115.787 28.2775 115.809 29.2221 115.809 31.0334V38.0844H112.809V16.6482C112.809 15.7258 112.798 14.9591 112.776 14.3479C112.765 13.7256 112.742 13.2644 112.709 12.9643H115.609C115.62 13.0088 115.637 13.2255 115.659 13.6144C115.693 14.0034 115.72 14.4256 115.743 14.8813C115.765 15.3258 115.776 15.6536 115.776 15.8647H115.843C116.376 14.7535 117.082 13.9422 117.96 13.4311C118.838 12.9088 119.993 12.6476 121.427 12.6476C123.649 12.6476 125.311 13.3922 126.411 14.8813C127.511 16.3704 128.061 18.7096 128.061 21.8989ZM124.911 21.9656C124.911 19.4541 124.572 17.6594 123.894 16.5815C123.216 15.5036 122.138 14.9646 120.66 14.9646C119.015 14.9646 117.793 15.5369 116.993 16.6815C116.204 17.815 115.809 19.6541 115.809 22.1989C115.809 24.5659 116.187 26.3106 116.943 27.433C117.699 28.5553 118.926 29.1165 120.627 29.1165C122.116 29.1165 123.199 28.572 123.877 27.483C124.566 26.3828 124.911 24.5437 124.911 21.9656ZM136.412 31.3335C134.601 31.3335 133.24 30.8556 132.328 29.9C131.417 28.9443 130.961 27.633 130.961 25.9661C130.961 24.0992 131.573 22.6656 132.795 21.6655C134.029 20.6654 136.012 20.132 138.746 20.0653L142.796 19.9986V19.0152C142.796 17.5483 142.485 16.4981 141.863 15.8647C141.241 15.2313 140.263 14.9146 138.929 14.9146C137.585 14.9146 136.607 15.1424 135.995 15.598C135.384 16.0536 135.018 16.7815 134.895 17.7817L131.762 17.4983C132.273 14.2534 134.684 12.631 138.996 12.631C141.263 12.631 142.969 13.1533 144.113 14.1978C145.258 15.2313 145.83 16.7315 145.83 18.6984V26.4662C145.83 27.3552 145.947 28.0275 146.18 28.4831C146.414 28.9276 146.858 29.1499 147.514 29.1499C147.825 29.1499 148.153 29.111 148.497 29.0332V30.9001C148.119 30.989 147.736 31.0557 147.347 31.1001C146.958 31.1446 146.569 31.1668 146.18 31.1668C145.069 31.1668 144.258 30.8779 143.746 30.3C143.246 29.711 142.963 28.7942 142.896 27.5496H142.796C142.03 28.9276 141.135 29.9055 140.113 30.4834C139.101 31.0501 137.868 31.3335 136.412 31.3335ZM142.796 22.0989L139.513 22.1656C138.112 22.1767 137.046 22.3212 136.312 22.599C135.579 22.8657 135.018 23.2768 134.629 23.8325C134.24 24.3881 134.045 25.116 134.045 26.0161C134.045 26.994 134.306 27.7497 134.829 28.2831C135.362 28.8165 136.118 29.0832 137.096 29.0832C138.207 29.0832 139.185 28.8331 140.029 28.3331C140.885 27.833 141.557 27.1496 142.046 26.2828C142.546 25.4049 142.796 24.5048 142.796 23.5824V22.0989ZM153.798 16.0481C154.442 14.8702 155.215 14.0089 156.115 13.4644C157.026 12.9088 158.176 12.631 159.565 12.631C161.521 12.631 162.96 13.1421 163.883 14.1645C164.816 15.1757 165.283 16.7815 165.283 18.9818V31.0001H162.266V19.5652C162.266 17.9317 161.977 16.7537 161.399 16.0314C160.832 15.3091 159.882 14.9479 158.548 14.9479C157.137 14.9479 156.004 15.4369 155.148 16.4148C154.303 17.3927 153.881 18.7096 153.881 20.3653V31.0001H150.881V6.26343H153.881V12.6976C153.881 13.1421 153.87 13.6144 153.848 14.1145C153.826 14.6034 153.803 15.0313 153.781 15.398C153.77 15.7536 153.759 15.9703 153.748 16.0481H153.798ZM172.8 6.26343V9.13048H169.8V6.26343H172.8ZM172.8 12.9643V31.0001H169.8V12.9643H172.8ZM180.485 20.5487V31.0001H177.484V16.8149C177.484 15.7592 177.473 14.9146 177.451 14.2812C177.44 13.6367 177.418 13.1977 177.384 12.9643H180.218C180.24 13.1755 180.257 13.4422 180.268 13.7644C180.29 14.0867 180.307 14.4423 180.318 14.8313C180.329 15.2202 180.34 15.6258 180.351 16.0481H180.401C181.09 14.8035 181.885 13.9256 182.785 13.4144C183.696 12.8921 184.824 12.631 186.169 12.631C188.147 12.631 189.592 13.1366 190.503 14.1478C191.425 15.1591 191.886 16.7704 191.886 18.9818V31.0001H188.869V19.5652C188.869 17.8428 188.591 16.6426 188.036 15.9647C187.48 15.2869 186.519 14.9479 185.152 14.9479C183.707 14.9479 182.568 15.4425 181.735 16.4315C180.901 17.4205 180.485 18.7929 180.485 20.5487Z" fill="white"/>
<path d="M4.26287 17.4445C4.26287 17.4445 4.26287 15.305 4.26287 27.5731C4.26287 39.8411 36.7462 39.8411 36.7462 27.5731C36.7462 15.305 36.7462 12.238 36.7462 12.238C36.7462 12.238 7.32989 14.7346 4.26287 10.134C1.19586 5.53349 25.7321 4 38 4" stroke="white" stroke-width="6.13403"/>
</svg>
